<svg width="60" height="60" viewBox="0 0 60 60" fill="none" xmlns="http://www.w3.org/2000/svg">
<g clip-path="url(#clip0_94_364)">
<path d="M43.125 30H46.875V25.75L50.5625 27.875L52.4375 24.625L48.75 22.5L52.4375 20.375L50.5625 17.125L46.875 19.25V15H43.125V19.25L39.4375 17.125L37.5625 20.375L41.25 22.5L37.5625 24.625L39.4375 27.875L43.125 25.75V30ZM5 52.5C3.625 52.5 2.44833 52.0108 1.47 51.0325C0.491667 50.0542 0.00166667 48.8767 0 47.5V12.5C0 11.125 0.49 9.94833 1.47 8.97C2.45 7.99167 3.62667 7.50167 5 7.5H55C56.375 7.5 57.5525 7.99 58.5325 8.97C59.5125 9.95 60.0017 11.1267 60 12.5V47.5C60 48.875 59.5108 50.0525 58.5325 51.0325C57.5542 52.0125 56.3767 52.5017 55 52.5H5ZM22.5 35C24.5833 35 26.3542 34.2708 27.8125 32.8125C29.2708 31.3542 30 29.5833 30 27.5C30 25.4167 29.2708 23.6458 27.8125 22.1875C26.3542 20.7292 24.5833 20 22.5 20C20.4167 20 18.6458 20.7292 17.1875 22.1875C15.7292 23.6458 15 25.4167 15 27.5C15 29.5833 15.7292 31.3542 17.1875 32.8125C18.6458 34.2708 20.4167 35 22.5 35ZM5.25 47.5H39.75C38 44.375 35.5833 41.9275 32.5 40.1575C29.4167 38.3875 26.0833 37.5017 22.5 37.5C18.9167 37.4983 15.5833 38.3842 12.5 40.1575C9.41667 41.9308 7 44.3783 5.25 47.5Z" fill="black"/>
</g>
<defs>
<clipPath id="clip0_94_364">
<rect width="60" height="60" fill="white"/>
</clipPath>
</defs>
</svg>
