<svg width="60" height="60" viewBox="0 0 60 60" fill="none" xmlns="http://www.w3.org/2000/svg">
<path d="M22.5 7.5C24.3542 7.5 26.1668 8.04983 27.7085 9.07997C29.2502 10.1101 30.4518 11.5743 31.1614 13.2873C31.8709 15.0004 32.0566 16.8854 31.6949 18.704C31.3331 20.5225 30.4402 22.193 29.1291 23.5041C27.818 24.8152 26.1475 25.7081 24.329 26.0699C22.5104 26.4316 20.6254 26.2459 18.9123 25.5364C17.1993 24.8268 15.7351 23.6252 14.705 22.0835C13.6748 20.5418 13.125 18.7292 13.125 16.875C13.125 14.3886 14.1127 12.004 15.8709 10.2459C17.629 8.48772 20.0136 7.5 22.5 7.5ZM22.5 3.75C19.9041 3.75 17.3665 4.51977 15.2081 5.96196C13.0497 7.40416 11.3675 9.454 10.3741 11.8523C9.38068 14.2506 9.12076 16.8896 9.62719 19.4356C10.1336 21.9816 11.3837 24.3202 13.2192 26.1558C15.0548 27.9913 17.3934 29.2414 19.9394 29.7478C22.4854 30.2542 25.1244 29.9943 27.5227 29.0009C29.921 28.0075 31.9708 26.3253 33.413 24.1669C34.8552 22.0085 35.625 19.4709 35.625 16.875C35.625 13.394 34.2422 10.0556 31.7808 7.59422C29.3194 5.13281 25.981 3.75 22.5 3.75ZM41.25 56.25H37.5V46.875C37.5 44.3886 36.5123 42.004 34.7541 40.2459C32.996 38.4877 30.6114 37.5 28.125 37.5H16.875C14.3886 37.5 12.004 38.4877 10.2459 40.2459C8.48772 42.004 7.5 44.3886 7.5 46.875V56.25H3.75V46.875C3.75 43.394 5.13281 40.0556 7.59422 37.5942C10.0556 35.1328 13.394 33.75 16.875 33.75H28.125C31.606 33.75 34.9444 35.1328 37.4058 37.5942C39.8672 40.0556 41.25 43.394 41.25 46.875V56.25ZM41.25 7.5H60V11.25H41.25V7.5ZM41.25 16.875H60V20.625H41.25V16.875ZM41.25 26.25H54.375V30H41.25V26.25Z" fill="black"/>
</svg>
